<svg width="4209" height="743" viewBox="0 0 4209 743" fill="none" xmlns="http://www.w3.org/2000/svg">
<path d="M3180.12 661.83C3551.54 814.173 4208.08 661.83 4208.08 661.83V488.317C4208.08 488.317 3636.52 759.834 3266.15 604.965C3056.25 517.196 2888.6 368.641 2678.53 281.266C2312.61 129.061 2057.51 154.934 1689.94 303.138C1475.04 389.787 1344.28 513.252 1131.49 604.965C700.6 790.681 0.00012207 488.317 0.00012207 488.317V661.83C0.00012207 661.83 769.253 844.414 1201.48 661.83C1413.15 572.411 1476.25 491.165 1689.94 406.663C2058.49 260.922 2311.59 226.318 2678.53 376.043C2887.37 461.255 2971.44 576.236 3180.12 661.83Z" fill="#FAEBD5"/>
<path d="M3180.21 596.722C3551.62 749.065 4208.17 596.722 4208.17 596.722V423.208C4208.17 423.208 3636.6 694.726 3266.23 539.857C3056.33 452.087 2888.68 303.533 2678.62 216.158C2312.69 63.9527 2057.59 89.8253 1690.02 238.029C1475.12 324.678 1344.36 448.143 1131.57 539.857C700.684 725.572 0.0839844 423.208 0.0839844 423.208V596.722C0.0839844 596.722 769.337 779.306 1201.56 596.722C1413.24 507.303 1476.34 426.056 1690.02 341.555C2058.57 195.814 2311.67 161.209 2678.62 310.935C2887.46 396.146 2971.52 511.127 3180.21 596.722Z" fill="#F7A64B"/>
<path d="M3180.21 532.565C3551.62 684.908 4208.17 532.565 4208.17 532.565V359.052C4208.17 359.052 3636.6 630.569 3266.23 475.7C3056.33 387.931 2888.68 239.377 2678.62 152.002C2312.69 -0.203552 2057.59 25.6691 1690.02 173.873C1475.12 260.522 1344.36 383.987 1131.57 475.7C700.684 661.416 0.0839844 359.052 0.0839844 359.052V532.565C0.0839844 532.565 769.337 715.149 1201.56 532.565C1413.24 443.147 1476.34 361.9 1690.02 277.398C2058.57 131.658 2311.67 97.0529 2678.62 246.778C2887.46 331.99 2971.52 446.971 3180.21 532.565Z" fill="#D87432"/>
<path d="M3180.21 482.989C3551.62 635.332 4208.17 482.989 4208.17 482.989V309.476C4208.17 309.476 3636.6 580.993 3266.23 426.124C3056.33 338.355 2888.68 189.8 2678.62 102.425C2312.69 -49.7797 2057.59 -23.9071 1690.02 124.297C1475.12 210.946 1344.36 334.411 1131.57 426.124C700.684 611.84 0.0839844 309.476 0.0839844 309.476V482.989C0.0839844 482.989 769.337 665.573 1201.56 482.989C1413.24 393.57 1476.34 312.324 1690.02 227.822C2058.57 82.0814 2311.67 47.4767 2678.62 197.202C2887.46 282.414 2971.52 397.395 3180.21 482.989Z" fill="#CD5452"/>
</svg>
